# Created by DisUnity v0.3.3
v -0.5 5.0 0.25
v 0.499999 5.5 0.25
v 0.499999 5.0 0.25
v -0.5 5.5 0.25
v -0.5 4.5 0.25
v 0.499999 4.5 0.25
v 0.5 4.0 0.25
v -0.5 4.0 0.25
v 0.5 3.5 0.25
v -0.5 3.5 0.25
v 0.499999 6.0 0.25
v -0.5 6.0 0.25
v 0.499999 6.5 0.25
v -0.5 6.5 0.25
v 0.499999 7.0 0.25
v -0.5 7.0 0.25
v 0.499999 7.5 0.25
v -0.5 7.5 0.25
v -0.5 3.0 0.25
v 0.499999 3.5 0.25
v 0.499999 3.0 0.25
v -0.5 2.5 0.25
v 0.499999 2.5 0.25
v -0.5 2.0 0.25
v 0.499999 2.0 0.25
v -0.5 1.5 0.25
v 0.499999 1.5 0.25
v -0.5 1.0 0.25
v 0.499999 1.0 0.25
v -0.5 0.5 0.25
v 0.499999 0.5 0.25
v 0.5 0.0 0.25
v -0.5 0.0 0.25
v 0.5 -0.5 0.25
v -0.5 -0.5 0.25
v -0.5 -1.0 0.25
v 0.499999 -0.5 0.25
v 0.499999 -1.0 0.25
v -0.5 -1.5 0.25
v 0.499999 -1.5 0.25
v -0.5 -2.0 0.25
v 0.499999 -2.0 0.25
v -0.5 -2.5 0.25
v 0.499999 -2.5 0.25
v -0.5 -3.0 0.25
v 0.499999 -3.0 0.25
v -0.5 -3.5 0.25
v 0.499999 -3.5 0.25
v 0.5 8.0 -0.25
v -0.5 8.0 -0.5
v 0.5 8.0 -0.5
v -0.0 8.0 -0.25
v -0.5 8.0 -0.25
v -0.5 8.0 -1.0
v 0.499999 8.0 -1.0
v 0.5 8.0 0.0
v -0.5 8.0 0.0
v 0.5 7.959628 0.09095
v -0.5 7.959627 0.09095
v 0.5 7.875 0.156612
v -0.5 7.875 0.156612
v 0.5 7.75 0.222273
v -0.5 7.75 0.222273
v 0.5 7.5 0.25
v -0.5 7.5 0.25
vn -0.0 0.0 1.0
vn -0.0 0.0 1.0
vn -0.0 0.0 1.0
vn -0.0 0.0 1.0
vn -0.0 0.0 1.0
vn -0.0 0.0 1.0
vn -0.0 0.0 1.0
vn -0.0 0.0 1.0
vn -0.0 0.0 1.0
vn -0.0 0.0 1.0
vn -0.0 0.0 1.0
vn -0.0 0.0 1.0
vn -0.0 0.0 1.0
vn -0.0 0.0 1.0
vn -0.0 0.0 1.0
vn -0.0 0.0 1.0
vn -0.0 0.0 1.0
vn -0.0 0.0 1.0
vn -0.0 0.0 1.0
vn -0.0 0.0 1.0
vn -0.0 0.0 1.0
vn -0.0 0.0 1.0
vn -0.0 0.0 1.0
vn -0.0 0.0 1.0
vn -0.0 0.0 1.0
vn -0.0 0.0 1.0
vn -0.0 0.0 1.0
vn -0.0 0.0 1.0
vn -0.0 0.0 1.0
vn -0.0 0.0 1.0
vn -0.0 0.0 1.0
vn -0.0 0.0 1.0
vn -0.0 0.0 1.0
vn -0.0 0.0 1.0
vn -0.0 0.0 1.0
vn -0.0 0.0 1.0
vn -0.0 0.0 1.0
vn -0.0 0.0 1.0
vn -0.0 0.0 1.0
vn -0.0 0.0 1.0
vn -0.0 0.0 1.0
vn -0.0 0.0 1.0
vn -0.0 0.0 1.0
vn -0.0 0.0 1.0
vn -0.0 0.0 1.0
vn -0.0 0.0 1.0
vn -0.0 0.0 1.0
vn -0.0 0.0 1.0
vn -0.0 1.0 0.0
vn -0.0 1.0 0.0
vn -0.0 1.0 0.0
vn -0.0 1.0 0.0
vn -0.0 1.0 0.0
vn -0.0 1.0 0.0
vn -0.0 1.0 0.0
vn -0.0 0.97826713 0.20734845
vn -0.0 0.97826713 0.20734845
vn -0.0 0.78732336 0.6165403
vn -0.0 0.78732336 0.6165403
vn -0.0 0.5411046 0.8409553
vn -0.0 0.5411046 0.8409553
vn -0.0 0.29271087 0.956201
vn -0.0 0.29271087 0.956201
vn -0.0 0.110233895 0.99390566
vn -0.0 0.110233895 0.99390566
vt 0.25 0.15625
vt 0.5 0.125
vt 0.5 0.15625
vt 0.25 0.125
vt 0.25 0.1875
vt 0.5 0.1875
vt 0.5 0.21875
vt 0.25 0.21875
vt 0.5 0.25
vt 0.25 0.25
vt 0.5 0.09375
vt 0.25 0.09375
vt 0.5 0.0625
vt 0.25 0.0625
vt 0.5 0.03125
vt 0.25 0.03125
vt 0.5 0.0
vt 0.25 0.0
vt 0.25 0.28125
vt 0.5 0.25
vt 0.5 0.28125
vt 0.25 0.3125
vt 0.5 0.3125
vt 0.25 0.34375
vt 0.5 0.34375
vt 0.25 0.375
vt 0.5 0.375
vt 0.25 0.40625
vt 0.5 0.40625
vt 0.25 0.4375
vt 0.5 0.4375
vt 0.5 0.46875
vt 0.25 0.46875
vt 0.5 0.5
vt 0.25 0.5
vt 0.25 0.53125
vt 0.5 0.5
vt 0.5 0.53125
vt 0.25 0.5625
vt 0.5 0.5625
vt 0.25 0.59375
vt 0.5 0.59375
vt 0.25 0.625
vt 0.5 0.625
vt 0.25 0.65625
vt 0.5 0.65625
vt 0.25 0.6875
vt 0.5 0.6875
vt 0.5 0.90625
vt 0.25 0.875
vt 0.5 0.875
vt 0.375 0.90625
vt 0.25 0.90625
vt 0.25 0.75
vt 0.5 0.75
vt 0.5 0.9375
vt 0.25 0.9375
vt 0.5 0.953125
vt 0.25 0.953125
vt 0.5 0.96875
vt 0.25 0.96875
vt 0.5 0.984375
vt 0.25 0.984375
vt 0.5 1.0
vt 0.25 1.0

g Waterfall_GripRotate
s 1
usemtl Waterfall_GripRotate
f 3/3/3 2/2/2 1/1/1 
f 2/2/2 4/4/4 1/1/1 
f 3/3/3 1/1/1 5/5/5 
f 6/6/6 3/3/3 5/5/5 
f 6/6/6 5/5/5 7/7/7 
f 5/5/5 8/8/8 7/7/7 
f 7/7/7 8/8/8 9/9/9 
f 8/8/8 10/10/10 9/9/9 
f 2/2/2 11/11/11 4/4/4 
f 11/11/11 12/12/12 4/4/4 
f 11/11/11 13/13/13 12/12/12 
f 13/13/13 14/14/14 12/12/12 
f 13/13/13 15/15/15 14/14/14 
f 15/15/15 16/16/16 14/14/14 
f 15/15/15 17/17/17 16/16/16 
f 17/17/17 18/18/18 16/16/16 
f 20/20/20 10/10/10 19/19/19 
f 21/21/21 20/20/20 19/19/19 
f 21/21/21 19/19/19 22/22/22 
f 23/23/23 21/21/21 22/22/22 
f 23/23/23 22/22/22 24/24/24 
f 25/25/25 23/23/23 24/24/24 
f 25/25/25 24/24/24 26/26/26 
f 27/27/27 25/25/25 26/26/26 
f 27/27/27 26/26/26 28/28/28 
f 29/29/29 27/27/27 28/28/28 
f 29/29/29 28/28/28 30/30/30 
f 31/31/31 29/29/29 30/30/30 
f 31/31/31 30/30/30 32/32/32 
f 30/30/30 33/33/33 32/32/32 
f 32/32/32 33/33/33 34/34/34 
f 33/33/33 35/35/35 34/34/34 
f 37/37/37 35/35/35 36/36/36 
f 38/38/38 37/37/37 36/36/36 
f 38/38/38 36/36/36 39/39/39 
f 40/40/40 38/38/38 39/39/39 
f 40/40/40 39/39/39 41/41/41 
f 42/42/42 40/40/40 41/41/41 
f 42/42/42 41/41/41 43/43/43 
f 44/44/44 42/42/42 43/43/43 
f 44/44/44 43/43/43 45/45/45 
f 46/46/46 44/44/44 45/45/45 
f 46/46/46 45/45/45 47/47/47 
f 48/48/48 46/46/46 47/47/47 
f 51/51/51 50/50/50 49/49/49 
f 50/50/50 52/52/52 49/49/49 
f 53/53/53 52/52/52 50/50/50 
f 54/54/54 50/50/50 51/51/51 
f 55/55/55 54/54/54 51/51/51 
f 49/49/49 52/52/52 56/56/56 
f 52/52/52 53/53/53 56/56/56 
f 53/53/53 57/57/57 56/56/56 
f 56/56/56 57/57/57 58/58/58 
f 57/57/57 59/59/59 58/58/58 
f 58/58/58 59/59/59 60/60/60 
f 59/59/59 61/61/61 60/60/60 
f 60/60/60 61/61/61 62/62/62 
f 61/61/61 63/63/63 62/62/62 
f 62/62/62 63/63/63 64/64/64 
f 63/63/63 65/65/65 64/64/64 

